<svg id="Isolation_Mode" data-name="Isolation Mode" xmlns="http://www.w3.org/2000/svg" viewBox="0 0 103.36 76.86"><defs><style>.cls-1{fill:#fff;}.cls-2{fill:#ef4343;}.cls-3{fill:#f15c5b;}.cls-4{fill:#dc2126;}.cls-5{fill:#b62025;}.cls-6{fill:none;stroke:#939598;stroke-miterlimit:10;stroke-width:0.56px;}.cls-7{fill:#ee3441;}.cls-8{fill:#0b72b7;}.cls-9{fill:#5e9ec4;}.cls-10{fill:#0562a1;}.cls-11{fill:#2682b5;}</style></defs><title>Conductos-juntos</title><path class="cls-1" d="M58.83,54.07" transform="translate(-37.78 -36.58)"/><polyline class="cls-2" points="38 6.12 38 0 59.12 4.64 48.16 8.34"/><path class="cls-1" d="M58.48,55.21" transform="translate(-37.78 -36.58)"/><polygon class="cls-3" points="48.16 8.34 26.93 15.51 26.93 3.7 48.16 8.34 48.16 8.34"/><polyline class="cls-4" points="21.05 17.49 59.12 4.64 59.12 46.74 21.05 60.66 21.05 17.49"/><polygon class="cls-5" points="38 6.12 38 0 26.93 3.7 38 6.12"/><path class="cls-6" d="M64.89,81.19" transform="translate(-37.78 -36.58)"/><polygon class="cls-5" points="0 12.69 26.93 3.7 26.93 15.51 21.05 17.49 0 12.69"/><polygon class="cls-7" points="21.05 60.66 21.05 17.49 0 12.69 0 54.34 21.05 60.66"/><path class="cls-1" d="M103.07,66.42" transform="translate(-37.78 -36.58)"/><polyline class="cls-8" points="82.24 18.47 82.24 12.35 103.36 16.99 92.4 20.69"/><path class="cls-1" d="M102.72,67.56" transform="translate(-37.78 -36.58)"/><polygon class="cls-9" points="92.4 20.69 71.17 27.86 71.17 16.05 92.4 20.69 92.4 20.69"/><polygon class="cls-10" points="82.24 18.47 82.24 12.35 71.17 16.05 82.24 18.47"/><polygon class="cls-10" points="54.76 33.39 44.24 25.04 33.17 28.74 54.76 33.39"/><path class="cls-6" d="M109.13,93.54" transform="translate(-37.78 -36.58)"/><polygon class="cls-10" points="44.24 25.04 71.17 16.05 71.17 27.86 65.29 29.84 44.24 25.04"/><polygon class="cls-9" points="65.29 73.02 65.29 29.84 44.24 25.04 44.24 66.69 65.29 73.02"/><polygon class="cls-11" points="54.76 33.39 54.76 76.86 103.36 59.09 103.36 16.99 54.76 33.39 33.17 28.74 33.17 28.74 33.17 70.51 54.76 76.86 54.76 33.39"/><polygon class="cls-8" points="33.17 28.74 54.76 33.39 54.76 76.86 33.17 70.51 33.17 28.74"/></svg>