<?xml version="1.0" encoding="utf-8"?>
<!-- Generator: Adobe Illustrator 24.0.1, SVG Export Plug-In . SVG Version: 6.00 Build 0)  -->
<svg version="1.1" xmlns="http://www.w3.org/2000/svg" xmlns:xlink="http://www.w3.org/1999/xlink" x="0px" y="0px"
	 viewBox="0 0 150 150" style="enable-background:new 0 0 150 150;" xml:space="preserve">
<style type="text/css">
	.st0{fill:#303030;}
	.st1{fill:#FFFFFF;}
	.st2{fill:#EF4343;}
	.st3{fill:#B62025;}
	.st4{fill:none;stroke:#939598;stroke-width:0.818;stroke-miterlimit:10;}
	.st5{fill:#F15C5B;}
	.st6{fill:#DC2126;}
	.st7{fill:#EE3441;}
	.st8{enable-background:new    ;}
	.st9{fill:#414042;}
	.st10{fill:none;stroke:#414042;stroke-width:1.4645;stroke-linecap:round;stroke-miterlimit:10;}
	.st11{fill:none;stroke:#414042;stroke-width:1.4249;stroke-linecap:round;stroke-miterlimit:10;}
	.st12{fill:none;stroke:#414042;stroke-width:1.4117;stroke-linecap:round;stroke-miterlimit:10;}
</style>
<g id="Layer_2">
	<g>
		<path class="st0" d="M87,31.4c-1.4,0-2.3-0.8-2.4-1.9h1c0.1,0.6,0.5,1.1,1.4,1.1c0.9,0,1.4-0.5,1.4-1.1c0-1.8-3.7-0.7-3.7-3.2
			c0-1.1,0.9-1.9,2.3-1.9c1.3,0,2.2,0.7,2.3,1.8h-1c-0.1-0.5-0.5-1-1.3-1c-0.7,0-1.3,0.4-1.3,1.1c0,1.8,3.7,0.7,3.7,3.2
			C89.3,30.4,88.5,31.4,87,31.4z"/>
		<path class="st0" d="M90.5,24.5c0-0.3,0.3-0.6,0.6-0.6c0.3,0,0.6,0.3,0.6,0.6c0,0.3-0.3,0.6-0.6,0.6
			C90.7,25.1,90.5,24.8,90.5,24.5z M90.6,25.9h0.9v5.4h-0.9V25.9z"/>
		<path class="st0" d="M100.8,28.3c0-1.1-0.6-1.7-1.5-1.7c-0.9,0-1.5,0.6-1.5,1.7v3h-0.9v-3c0-1.1-0.6-1.7-1.5-1.7
			c-0.9,0-1.5,0.6-1.5,1.7v3H93v-5.4h0.9v0.8c0.4-0.6,1-0.9,1.7-0.9c0.9,0,1.6,0.4,2,1.2c0.3-0.8,1.1-1.2,1.9-1.2
			c1.2,0,2.2,0.8,2.2,2.3v3.2h-0.9V28.3z"/>
		<path class="st0" d="M106,25.9c1.4,0,2.6,1.1,2.6,2.8c0,1.7-1.1,2.8-2.6,2.8c-1,0-1.7-0.5-2-1.1v3.5h-0.9v-7.9h0.9v1
			C104.4,26.4,105.1,25.9,106,25.9z M105.9,26.6c-1,0-1.8,0.7-1.8,2c0,1.3,0.9,2,1.8,2c1,0,1.8-0.7,1.8-2
			C107.7,27.4,106.8,26.6,105.9,26.6z"/>
		<path class="st0" d="M109.8,24.1h0.9v7.3h-0.9V24.1z"/>
		<path class="st0" d="M114.5,31.4c-1.5,0-2.7-1.1-2.7-2.8c0-1.7,1.1-2.8,2.7-2.8c1.6,0,2.6,1.1,2.6,2.6c0,0.2,0,0.4,0,0.5h-4.3
			c0.1,1.1,0.8,1.7,1.7,1.7c0.8,0,1.3-0.4,1.5-1h1C116.7,30.6,115.9,31.4,114.5,31.4z M112.8,28.2h3.4c0-1-0.8-1.6-1.7-1.6
			C113.6,26.6,112.9,27.2,112.8,28.2z"/>
		<g>
			<path class="st0" d="M36.3,24.2c1.6,0,2.7,0.8,3.2,2.1h-1.1c-0.3-0.9-1.1-1.3-2.1-1.3c-1.4,0-2.6,1.1-2.6,2.8s1.1,2.8,2.6,2.8
				c1,0,1.8-0.4,2.1-1.3h1.1c-0.6,1.3-1.8,2.1-3.2,2.1c-2,0-3.4-1.4-3.4-3.5S34.5,24.2,36.3,24.2z"/>
			<path class="st0" d="M43.3,31.4c-1.6,0-2.8-1.1-2.8-2.9c0-1.8,1.2-2.8,2.8-2.8s2.8,1.1,2.8,2.8C46.1,30.3,44.9,31.4,43.3,31.4z
				 M43.3,30.5c1,0,1.9-0.7,1.9-2c0-1.3-0.9-2-1.9-2c-1,0-1.9,0.7-1.9,2C41.5,29.9,42.3,30.5,43.3,30.5z"/>
			<path class="st0" d="M51.3,28.2c0-1.1-0.7-1.7-1.6-1.7s-1.6,0.6-1.6,1.8v3h-0.9v-5.4h0.9v0.8c0.3-0.6,1-0.9,1.8-0.9
				c1.2,0,2.2,0.8,2.2,2.3v3.2h-0.9C51.3,31.3,51.3,28.2,51.3,28.2z"/>
			<path class="st0" d="M56.1,25.6c0.9,0,1.7,0.4,2,1.1v-2.9H59v7.4h-0.9v-1c-0.3,0.6-1,1.1-2,1.1c-1.4,0-2.6-1.1-2.6-2.9
				C53.4,26.8,54.5,25.6,56.1,25.6z M56.2,26.5c-1,0-1.9,0.8-1.9,2c0,1.3,0.9,2,1.9,2c1,0,1.9-0.8,1.9-2
				C58.1,27.2,57.2,26.5,56.2,26.5z"/>
			<path class="st0" d="M65.4,31.3h-0.9v-0.8c-0.3,0.6-1,0.9-1.8,0.9c-1.2,0-2.2-0.8-2.2-2.3v-3.2h0.9v3c0,1.1,0.7,1.7,1.6,1.7
				s1.6-0.6,1.6-1.8v-3h0.9V31.3z"/>
			<path class="st0" d="M69.3,25.6c1.3,0,2.2,0.7,2.6,1.9h-1c-0.2-0.7-0.8-1.1-1.6-1.1c-1,0-1.8,0.7-1.8,2c0,1.3,0.8,2.1,1.8,2.1
				c0.8,0,1.3-0.4,1.6-1.1h1c-0.3,1.1-1.2,1.9-2.6,1.9c-1.6,0-2.7-1.1-2.7-2.9C66.6,26.8,67.7,25.6,69.3,25.6z"/>
			<path class="st0" d="M73.2,26.5h-0.7v-0.8h0.7v-1.3H74v1.3h1.4v0.8H74v3.2c0,0.6,0.2,0.8,0.8,0.8h0.7v0.8h-0.8
				c-1,0-1.6-0.4-1.6-1.6V26.5z"/>
			<path class="st0" d="M79,31.4c-1.6,0-2.8-1.1-2.8-2.9c0-1.8,1.2-2.8,2.8-2.8s2.8,1.1,2.8,2.8C81.8,30.3,80.6,31.4,79,31.4z
				 M79,30.5c1,0,1.9-0.7,1.9-2c0-1.3-0.9-2-1.9-2c-1,0-1.9,0.7-1.9,2C77.3,29.9,78,30.5,79,30.5z"/>
		</g>
	</g>
</g>
<g id="Layer_1">
	<title>ConductoSimples</title>
	<g>
		<path class="st1" d="M73.3,68.1"/>
		<path class="st1" d="M72.8,69.8"/>
		<polygon class="st2" points="113,54.7 81.8,65.2 81.8,47.9 		"/>
		<polygon class="st3" points="57.9,73.2 42.4,61.1 26,66.5 		"/>
		<path class="st4" d="M82.1,107.8"/>
		<polygon class="st3" points="42.4,61.1 81.8,47.9 81.8,65.2 73.3,68.1 		"/>
		<polygon class="st5" points="73.3,131.4 73.3,68.1 42.4,61.1 42.4,122.2 		"/>
		<polygon class="st6" points="57.9,73.2 57.9,137.1 113.6,116.6 113,54.7 57.9,73.2 26,66.5 26,66.5 26,127.8 57.9,137.1 		"/>
		<polygon class="st7" points="26,66.5 57.9,73.2 57.9,137.1 26,127.8 		"/>
		<g class="st8">
			<path class="st9" d="M38.7,135.8l-2.6,8.6l-1.3-0.4l2.2-7.5l-2-0.6l0.3-1.1L38.7,135.8z"/>
			<path class="st9" d="M45.1,144.3c-0.5,1.5-1.9,2.3-4.2,1.7c-1.3-0.4-2.4-1.2-3-2l0.9-0.8c0.5,0.7,1.4,1.4,2.4,1.8
				c1.4,0.4,2.3,0,2.6-0.9c0.3-1-0.2-1.8-2.2-2.4l-2-0.6l1.9-4.4l5.1,1.6l-0.3,1.1l-4-1.2l-1,2.2l1,0.3
				C44.8,141.4,45.5,142.8,45.1,144.3z"/>
		</g>
		<g class="st8">
			<path class="st9" d="M87.3,137.6c0.6,1.4,0,3-2.2,3.9c-1.3,0.5-2.6,0.7-3.6,0.3l0.2-1.2c0.8,0.3,1.9,0.3,3-0.2
				c1.3-0.6,1.8-1.5,1.5-2.3c-0.4-0.9-1.3-1.2-2.7-0.6l-0.7,0.3l-0.4-0.9l1.1-3.5l-4.2,1.8l-0.4-1.1l5.7-2.3l0.3,0.8l-1.2,3.6
				C85.5,135.7,86.8,136.3,87.3,137.6z"/>
		</g>
		<g class="st8">
			<path class="st9" d="M94.1,134.8c0.6,1.5,0,3-2.2,3.9c-1.3,0.5-2.6,0.6-3.6,0.3l0.2-1.2c0.8,0.3,1.9,0.3,2.9-0.2
				c1.3-0.6,1.9-1.5,1.5-2.3c-0.4-1-1.3-1.3-3.2-0.4l-1.9,0.8l-1.4-4.6l4.9-2l0.4,1.1l-3.8,1.6l0.7,2.3l1-0.4
				C92.1,132.6,93.4,133.3,94.1,134.8z"/>
		</g>
		<path class="st10" d="M32.6,138.2l-7.2-2.1"/>
		<path class="st10" d="M97,131.7l16.5-6.2"/>
		<path class="st10" d="M47.8,142.7l10.4,3.1l19.7-7.4"/>
		<g class="st8">
			<path class="st9" d="M123.5,88.4c1.6,0,2.8,1.2,2.8,3.5c0,1.4-0.4,2.6-1.1,3.4l-1-0.6c0.6-0.6,1-1.7,1-2.8c0-1.5-0.6-2.2-1.6-2.2
				s-1.7,0.7-1.7,2.8v2.1l-4.7-0.5v-5.3h1.1V93l2.4,0.3v-1.1C120.8,89.5,121.9,88.4,123.5,88.4z"/>
			<path class="st9" d="M121.7,87.2c-2.9,0-4.6-1.7-4.6-3.8s1.7-3.8,4.6-3.8s4.6,1.7,4.6,3.8C126.3,85.7,124.6,87.2,121.7,87.2z
				 M121.7,81c-2.3,0-3.4,1-3.4,2.4s1.2,2.5,3.4,2.5c2.3,0,3.4-1,3.4-2.5C125.1,82,124,81,121.7,81z"/>
		</g>
		<path class="st11" d="M122,77.3V55.1"/>
		<path class="st12" d="M122,116.6v-19"/>
	</g>
	<g>
		<path class="st7" d="M70,8.3c2.3,0,4.1,1.3,4.7,3.4H72c-0.4-0.8-1.1-1.3-2.1-1.3c-1.5,0-2.5,1.1-2.5,2.8s1,2.8,2.5,2.8
			c0.9,0,1.7-0.4,2.1-1.3h2.6c-0.6,2.1-2.3,3.4-4.7,3.4c-2.9,0-4.9-2.1-4.9-5S67.1,8.3,70,8.3z"/>
		<path class="st7" d="M79.7,18.4c-2.1,0-3.8-1-3.8-3h2.5c0.1,0.8,0.5,1.1,1.2,1.1s1.1-0.4,1.1-0.9c0-1.8-4.9-0.8-4.9-4.3
			c0-1.9,1.5-2.9,3.6-2.9s3.6,1.1,3.7,2.9h-2.6c0-0.6-0.5-1-1.1-1s-1,0.3-1,0.9c0,1.7,4.9,0.9,4.9,4.2C83.2,17,82,18.4,79.7,18.4z"
			/>
	</g>
</g>
</svg>
