<?xml version="1.0" encoding="utf-8"?>
<!-- Generator: Adobe Illustrator 24.0.1, SVG Export Plug-In . SVG Version: 6.00 Build 0)  -->
<svg version="1.1" id="Layer_1" xmlns="http://www.w3.org/2000/svg" xmlns:xlink="http://www.w3.org/1999/xlink" x="0px" y="0px"
	 viewBox="0 0 150 171.6" style="enable-background:new 0 0 150 171.6;" xml:space="preserve">
<style type="text/css">
	.st0{fill:#FFFFFF;}
	.st1{fill:#939598;}
	.st2{fill:none;stroke:#939598;stroke-width:0.763;stroke-miterlimit:10;}
	.st3{fill:#58595B;}
	.st4{fill:#808285;}
	.st5{fill:#DC2126;}
	.st6{enable-background:new    ;}
	.st7{fill:#414042;}
	.st8{fill:none;stroke:#414042;stroke-width:1.3734;stroke-linecap:round;stroke-miterlimit:10;}
	.st9{fill:none;stroke:#414042;stroke-width:1.3407;stroke-linecap:round;stroke-miterlimit:10;}
	.st10{fill:none;stroke:#414042;stroke-width:1.319;stroke-linecap:round;stroke-miterlimit:10;}
	.st11{fill:#303030;}
</style>
<title>ConductoCiego</title>
<path class="st0" d="M65.9,100.1"/>
<path class="st0" d="M65.5,101.6"/>
<polygon class="st1" points="102.9,41.7 73.7,51.6 73.7,35.3 "/>
<path class="st2" d="M74.3,137.4"/>
<polygon class="st3" points="36.9,44.7 74.1,35.3 74.1,97.3 65.9,100.1 "/>
<polygon class="st1" points="65.9,159.6 65.9,50.7 36.9,44.7 36.9,150.9 "/>
<polyline class="st4" points="65.9,159.6 103.8,145.7 102.9,41.7 65.9,50.7 65.9,159.6 "/>
<path class="st5" d="M65.9,100.1"/>
<g class="st6">
	<path class="st7" d="M48.5,158.3l-2.4,8.1l-1.2-0.4l2.1-7.1l-1.9-0.6l0.3-1L48.5,158.3z"/>
	<path class="st7" d="M54.5,166.3c-0.4,1.4-1.8,2.2-3.9,1.6c-1.2-0.4-2.3-1.1-2.8-1.9l0.8-0.7c0.4,0.7,1.2,1.3,2.3,1.6
		c1.3,0.4,2.2,0,2.4-0.8c0.3-0.9-0.2-1.7-2.1-2.2l-1.9-0.6L51,159l4.8,1.4l-0.3,1l-3.7-1.1l-0.9,2.2l0.9,0.3
		C54.3,163.5,54.9,164.8,54.5,166.3z"/>
</g>
<g class="st6">
	<path class="st7" d="M88.5,163.6l0.4,1l-5.9,2.3l-0.3-0.8l2.1-4.4c0.6-1.1,0.5-1.7,0.3-2.2c-0.3-0.8-1.1-1.1-2.2-0.6
		c-0.9,0.3-1.5,0.9-1.8,1.7l-1.1-0.4c0.3-1,1.3-1.9,2.5-2.3c1.7-0.7,3.1-0.2,3.7,1.1c0.3,0.8,0.3,1.5-0.4,3l-1.6,3.3L88.5,163.6z"/>
	<path class="st7" d="M94.7,159.7c0.5,1.4-0.1,2.8-2.2,3.7c-1.2,0.4-2.4,0.5-3.4,0.2l0.2-1.1c0.7,0.3,1.8,0.3,2.8-0.1
		c1.2-0.5,1.7-1.3,1.4-2.2c-0.3-0.9-1.1-1.2-3-0.5l-1.9,0.7l-1.2-4.3l4.6-1.8l0.4,1l-3.6,1.4l0.6,2.3l0.9-0.4
		C92.8,157.7,94.1,158.3,94.7,159.7z"/>
</g>
<path class="st8" d="M42.9,160.6l-6.7-2"/>
<path class="st8" d="M94.9,157.1l10.8-4.1"/>
<polyline class="st8" points="57.9,165 66.6,168 79.8,163 "/>
<g class="st6">
	<path class="st7" d="M107.2,101.9h8.4v1.2h-7.4v2h-1V101.9z"/>
</g>
<g class="st6">
	<path class="st7" d="M111.4,93c-2.8,0-4.3-1.5-4.3-3.6c0-2,1.6-3.6,4.3-3.6s4.3,1.5,4.3,3.6C115.8,91.4,114.2,93,111.4,93z
		 M111.4,87c-2.2,0-3.2,1-3.2,2.3c0,1.4,1.1,2.3,3.2,2.3s3.2-1,3.2-2.3C114.7,88,113.6,87,111.4,87z"/>
</g>
<g class="st6">
	<path class="st7" d="M111.4,100.8c-2.8,0-4.3-1.5-4.3-3.6c0-2,1.6-3.6,4.3-3.6s4.3,1.5,4.3,3.6C115.8,99.2,114.2,100.8,111.4,100.8
		z M111.4,94.8c-2.2,0-3.2,1-3.2,2.3c0,1.4,1.1,2.3,3.2,2.3s3.2-1,3.2-2.3C114.7,95.8,113.6,94.8,111.4,94.8z"/>
</g>
<path class="st9" d="M111.7,82.9V41.7"/>
<path class="st10" d="M111.7,145.7v-39.4"/>
<g>
	<path class="st11" d="M69.7,4.7c2.3,0,4.1,1.3,4.7,3.4h-2.6c-0.4-0.8-1.1-1.3-2.1-1.3c-1.5,0-2.5,1.1-2.5,2.8s1,2.8,2.5,2.8
		c0.9,0,1.7-0.4,2.1-1.3h2.6c-0.6,2.1-2.3,3.4-4.7,3.4c-2.9,0-4.9-2.1-4.9-5S66.8,4.7,69.7,4.7z"/>
	<path class="st11" d="M80.4,4.7c2.3,0,4.1,1.3,4.7,3.4h-2.6c-0.4-0.8-1.1-1.3-2.1-1.3c-1.5,0-2.5,1.1-2.5,2.8s1,2.8,2.5,2.8
		c0.9,0,1.7-0.4,2.1-1.3h2.6c-0.6,2.1-2.3,3.4-4.7,3.4c-2.9,0-4.9-2.1-4.9-5S77.5,4.7,80.4,4.7z"/>
</g>
<g>
	<path class="st11" d="M39,20.7c1.5,0,2.6,0.7,3.2,2.1h-1.1C40.7,22,40,21.5,39,21.5c-1.4,0-2.5,1-2.5,2.7c0,1.7,1.1,2.7,2.5,2.7
		c1,0,1.7-0.5,2.1-1.3h1.1c-0.5,1.3-1.7,2-3.2,2c-1.9,0-3.4-1.4-3.4-3.5S37.1,20.7,39,20.7z"/>
	<path class="st11" d="M45.8,27.7c-1.5,0-2.7-1.1-2.7-2.8c0-1.7,1.2-2.8,2.7-2.8c1.5,0,2.7,1.1,2.7,2.8
		C48.6,26.6,47.3,27.7,45.8,27.7z M45.8,26.9c0.9,0,1.8-0.6,1.8-2c0-1.3-0.9-2-1.8-2c-0.9,0-1.8,0.6-1.8,2
		C44.1,26.3,44.9,26.9,45.8,26.9z"/>
	<path class="st11" d="M53.7,24.6c0-1.1-0.6-1.7-1.5-1.7c-0.9,0-1.5,0.6-1.5,1.7v3h-0.9v-5.4h0.9V23c0.4-0.6,1-0.9,1.7-0.9
		c1.2,0,2.2,0.8,2.2,2.3v3.2h-0.9V24.6z"/>
	<path class="st11" d="M58.2,22.2c0.8,0,1.6,0.4,2,1v-2.8h0.9v7.2h-0.9v-1c-0.3,0.6-1,1.1-2,1.1c-1.4,0-2.5-1.1-2.5-2.8
		C55.7,23.2,56.8,22.2,58.2,22.2z M58.4,22.9c-1,0-1.8,0.7-1.8,2c0,1.3,0.8,2,1.8,2c1,0,1.8-0.7,1.8-2
		C60.2,23.7,59.4,22.9,58.4,22.9z"/>
	<path class="st11" d="M67.4,27.6h-0.9v-0.8c-0.3,0.6-1,0.9-1.7,0.9c-1.2,0-2.2-0.8-2.2-2.3v-3.1h0.9v3c0,1.1,0.6,1.6,1.5,1.6
		c0.9,0,1.5-0.6,1.5-1.7v-2.9h0.9V27.6z"/>
	<path class="st11" d="M71.2,22.2c1.3,0,2.2,0.7,2.5,1.8h-1c-0.2-0.6-0.7-1.1-1.5-1.1c-1,0-1.7,0.7-1.7,2c0,1.3,0.7,2,1.7,2
		c0.8,0,1.3-0.4,1.5-1.1h1c-0.3,1.1-1.1,1.8-2.5,1.8c-1.5,0-2.6-1.1-2.6-2.8C68.6,23.2,69.6,22.2,71.2,22.2z"/>
	<path class="st11" d="M75,23h-0.7v-0.7H75v-1.3h0.9v1.3h1.4V23h-1.4v3.2c0,0.5,0.2,0.7,0.7,0.7h0.7v0.8h-0.8
		c-0.9,0-1.5-0.4-1.5-1.5V23z"/>
	<path class="st11" d="M80.7,27.7c-1.5,0-2.7-1.1-2.7-2.8c0-1.7,1.2-2.8,2.7-2.8c1.5,0,2.7,1.1,2.7,2.8
		C83.5,26.6,82.2,27.7,80.7,27.7z M80.7,26.9c0.9,0,1.8-0.6,1.8-2c0-1.3-0.9-2-1.8-2c-0.9,0-1.8,0.6-1.8,2
		C79,26.3,79.8,26.9,80.7,26.9z"/>
	<path class="st11" d="M90.3,20.7c1.5,0,2.6,0.7,3.2,2.1h-1.1c-0.4-0.8-1.1-1.3-2.1-1.3c-1.4,0-2.5,1-2.5,2.7c0,1.7,1.1,2.7,2.5,2.7
		c1,0,1.7-0.5,2.1-1.3h1.1c-0.5,1.3-1.7,2-3.2,2c-1.9,0-3.4-1.4-3.4-3.5S88.4,20.7,90.3,20.7z"/>
	<path class="st11" d="M94.7,20.8c0-0.3,0.3-0.6,0.6-0.6c0.3,0,0.6,0.3,0.6,0.6c0,0.3-0.3,0.6-0.6,0.6
		C94.9,21.4,94.7,21.1,94.7,20.8z M94.8,22.3h0.9v5.4h-0.9V22.3z"/>
	<path class="st11" d="M99.5,27.7c-1.5,0-2.6-1.1-2.6-2.8c0-1.7,1.1-2.8,2.6-2.8c1.6,0,2.6,1.1,2.6,2.6c0,0.2,0,0.4,0,0.5h-4.3
		c0.1,1.1,0.8,1.7,1.7,1.7c0.8,0,1.3-0.4,1.5-1h1C101.7,26.9,100.9,27.7,99.5,27.7z M97.8,24.6h3.4c0-1-0.8-1.6-1.7-1.6
		C98.6,22.9,97.9,23.5,97.8,24.6z"/>
	<path class="st11" d="M105.5,22.2c1,0,1.7,0.5,2,1.1v-1h0.9v5.5c0,1.5-1,2.5-2.6,2.5c-1.4,0-2.4-0.7-2.6-1.9h0.9
		c0.2,0.6,0.8,1.1,1.7,1.1c0.9,0,1.7-0.6,1.7-1.7v-1.1c-0.3,0.6-1,1.1-2,1.1c-1.4,0-2.5-1.1-2.5-2.8C103,23.2,104.1,22.2,105.5,22.2
		z M105.7,22.9c-1,0-1.8,0.7-1.8,2c0,1.3,0.8,2,1.8,2c1,0,1.8-0.7,1.8-2C107.5,23.7,106.6,22.9,105.7,22.9z"/>
	<path class="st11" d="M112.2,27.7c-1.5,0-2.7-1.1-2.7-2.8c0-1.7,1.2-2.8,2.7-2.8c1.5,0,2.7,1.1,2.7,2.8
		C115,26.6,113.8,27.7,112.2,27.7z M112.2,26.9c0.9,0,1.8-0.6,1.8-2c0-1.3-0.9-2-1.8-2c-0.9,0-1.8,0.6-1.8,2
		C110.5,26.3,111.3,26.9,112.2,26.9z"/>
</g>
</svg>
