<?xml version="1.0" encoding="utf-8"?>
<!-- Generator: Adobe Illustrator 24.0.1, SVG Export Plug-In . SVG Version: 6.00 Build 0)  -->
<svg version="1.1" id="Layer_1" xmlns="http://www.w3.org/2000/svg" xmlns:xlink="http://www.w3.org/1999/xlink" x="0px" y="0px"
	 viewBox="0 0 150 150" style="enable-background:new 0 0 150 150;" xml:space="preserve">
<style type="text/css">
	.st0{fill:#FFFFFF;}
	.st1{fill:#0B72B7;}
	.st2{fill:#5E9EC4;}
	.st3{fill:#0562A1;}
	.st4{fill:none;stroke:#939598;stroke-width:0.7789;stroke-miterlimit:10;}
	.st5{fill:#2682B5;}
	.st6{enable-background:new    ;}
	.st7{fill:#414042;}
	.st8{fill:none;stroke:#414042;stroke-width:1.3926;stroke-linecap:round;stroke-miterlimit:10;}
	.st9{fill:none;stroke:#414042;stroke-width:1.3572;stroke-linecap:round;stroke-miterlimit:10;}
	.st10{fill:none;stroke:#414042;stroke-width:1.3454;stroke-linecap:round;stroke-miterlimit:10;}
	.st11{fill:#303030;}
</style>
<title>ConductoDoble</title>
<g>
	<path class="st0" d="M65,67"/>
	<polyline class="st1" points="88.7,51.2 88.7,42.7 118.3,49.1 103,54.3 	"/>
	<path class="st0" d="M64.6,68.8"/>
	<polygon class="st2" points="103,54.3 73.2,64.4 73.2,47.9 	"/>
	<polygon class="st3" points="88.7,51.2 88.7,42.7 73.2,47.9 	"/>
	<polygon class="st3" points="50.3,72 35.5,60.3 20.1,65.5 	"/>
	<path class="st4" d="M73.6,105.1"/>
	<polygon class="st3" points="35.5,60.3 73.2,47.9 73.2,64.4 65,67 	"/>
	<polygon class="st2" points="65,127.5 65,67 35.5,60.3 35.5,118.7 	"/>
	<polygon class="st5" points="50.3,72 50.3,133 118.3,108.1 118.3,49.1 50.3,72 20.1,65.5 20.1,65.5 20.1,124 50.3,133 	"/>
	<polygon class="st1" points="20.1,65.5 50.3,72 50.3,133 20.1,124 	"/>
	<g class="st6">
		<path class="st7" d="M32.1,131.6l-2.5,8.2l-1.2-0.4l2.2-7.2l-1.9-0.6l0.3-1.1L32.1,131.6z"/>
		<path class="st7" d="M38.2,139.8c-0.4,1.4-1.8,2.2-4,1.6c-1.2-0.4-2.3-1.1-2.9-1.9l0.9-0.8c0.4,0.7,1.2,1.3,2.3,1.6
			c1.2,0.4,2.2,0,2.5-0.9c0.3-1-0.2-1.7-2.1-2.3l-1.9-0.6l1.7-4.1l4.8,1.4l-0.3,1.1l-3.8-1.2l-0.9,2.2l1,0.3
			C37.9,137,38.7,138.3,38.2,139.8z"/>
	</g>
	<g class="st6">
		<path class="st7" d="M87.8,131l-1.5,0.7l0.8,1.9l-1.2,0.5l-0.8-1.9l-4.6,1.9l-0.3-0.8l2.1-6.9l1.2-0.7l-1.9,6.7l3.2-1.3l-0.7-1.7
			l1.2-0.5l0.7,1.7l1.5-0.7L87.8,131z"/>
	</g>
	<g class="st6">
		<path class="st7" d="M93.9,128c0.6,1.3,0,2.9-2.1,3.7c-1.2,0.5-2.5,0.6-3.5,0.3l0.2-1.2c0.8,0.3,1.8,0.2,2.8-0.2
			c1.2-0.5,1.7-1.3,1.3-2.2s-1.2-1.2-3.1-0.4l-1.9,0.8l-1.2-4.3l4.6-1.9l0.4,1l-3.6,1.5l0.7,2.3l1-0.4C91.9,126,93.3,126.6,93.9,128
			z"/>
	</g>
	<path class="st8" d="M26.3,133.8l-6.8-2"/>
	<path class="st8" d="M50.6,141.2l-10.2-3.1"/>
	<path class="st8" d="M95.3,124.6l23-8.6"/>
	<path class="st8" d="M50.8,141.2L77.9,131"/>
	<g class="st6">
		<path class="st7" d="M127.9,80.8c1.4,0,2.7,1.1,2.7,3.4c0,1.2-0.4,2.5-1.1,3.3l-1-0.6c0.6-0.6,1-1.6,1-2.7c0-1.3-0.6-2.1-1.5-2.1
			c-1,0-1.5,0.7-1.5,2.7v2l-4.5-0.4v-5h1.1v3.9l2.4,0.3v-1C125.3,81.9,126.4,80.8,127.9,80.8z"/>
		<path class="st7" d="M126.2,79.8c-2.8,0-4.4-1.5-4.4-3.6s1.6-3.6,4.4-3.6s4.4,1.5,4.4,3.6S129,79.8,126.2,79.8z M126.2,73.8
			c-2.2,0-3.3,1-3.3,2.4s1.2,2.4,3.3,2.4c2.2,0,3.3-1,3.3-2.4S128.4,73.8,126.2,73.8z"/>
	</g>
	<path class="st9" d="M126.5,70.4V49.1"/>
	<path class="st10" d="M126.5,107.8v-18"/>
</g>
<g>
	<path class="st1" d="M70,7.8c2.3,0,4.1,1.3,4.7,3.4H72c-0.4-0.8-1.1-1.2-2-1.2c-1.5,0-2.5,1.1-2.5,2.8s1,2.8,2.5,2.8
		c0.9,0,1.7-0.4,2.1-1.3h2.6c-0.6,2.1-2.3,3.4-4.7,3.4c-2.9,0-4.9-2.1-4.9-5S67.1,7.8,70,7.8z"/>
	<path class="st1" d="M84.9,12.9c0,2.9-2,4.9-5.1,4.9h-3.7V8h3.7C82.9,8,84.9,9.9,84.9,12.9z M79.6,15.7c1.8,0,2.9-1,2.9-2.8
		S81.4,10,79.6,10h-1.1v5.7H79.6z"/>
</g>
<g>
	<path class="st11" d="M39,23.9c1.5,0,2.6,0.8,3.1,2.1H41c-0.3-0.9-1.1-1.3-2.1-1.3c-1.4,0-2.5,1.1-2.5,2.7c0,1.6,1.1,2.7,2.5,2.7
		c1,0,1.7-0.4,2.1-1.3h1.1c-0.5,1.3-1.7,2.1-3.1,2.1c-2,0-3.4-1.4-3.4-3.5S37.1,23.9,39,23.9z"/>
	<path class="st11" d="M45.8,30.9c-1.5,0-2.7-1.1-2.7-2.8s1.2-2.7,2.7-2.7c1.5,0,2.7,1.1,2.7,2.7C48.5,29.8,47.3,30.9,45.8,30.9z
		 M45.8,30.1c1,0,1.8-0.7,1.8-2s-0.9-2-1.8-2c-1,0-1.8,0.7-1.8,2C44.1,29.5,44.8,30.1,45.8,30.1z"/>
	<path class="st11" d="M53.6,27.8c0-1.1-0.5-1.6-1.5-1.6c-0.9,0-1.5,0.5-1.5,1.7v2.9h-0.9v-5.3h0.9v0.8c0.3-0.5,1-0.9,1.7-0.9
		c1.2,0,2.2,0.8,2.2,2.3v3.1h-0.9C53.6,30.8,53.6,27.8,53.6,27.8z"/>
	<path class="st11" d="M58.3,25.4c0.9,0,1.6,0.4,2,1.1v-2.9h0.9v7.3h-0.9v-1c-0.3,0.5-1,1.1-2,1.1c-1.4,0-2.5-1.1-2.5-2.8
		C55.7,26.5,56.8,25.4,58.3,25.4z M58.4,26.1c-1,0-1.8,0.8-1.8,2c0,1.3,0.9,2,1.8,2s1.8-0.8,1.8-2C60.2,26.9,59.4,26.1,58.4,26.1z"
		/>
	<path class="st11" d="M67.4,30.8h-0.9v-0.8c-0.3,0.5-1,0.9-1.7,0.9c-1.2,0-2.2-0.8-2.2-2.3v-3.1h0.9v3c0,1.1,0.7,1.6,1.5,1.6
		s1.5-0.5,1.5-1.7v-2.9h0.9V30.8z"/>
	<path class="st11" d="M71.2,25.4c1.3,0,2.2,0.7,2.5,1.8h-1c-0.2-0.7-0.8-1.1-1.5-1.1c-1,0-1.7,0.7-1.7,2c0,1.3,0.8,2.1,1.7,2.1
		c0.8,0,1.3-0.4,1.5-1.1h1c-0.3,1.1-1.2,1.8-2.5,1.8c-1.5,0-2.6-1.1-2.6-2.8C68.6,26.5,69.7,25.4,71.2,25.4z"/>
	<path class="st11" d="M75,26.1h-0.7v-0.8H75v-1.3h0.9v1.3h1.4v0.8h-1.4v3.1c0,0.5,0.2,0.8,0.8,0.8h0.7v0.8h-0.8
		c-1,0-1.5-0.4-1.5-1.5V26.1z"/>
	<path class="st11" d="M80.7,30.9c-1.5,0-2.7-1.1-2.7-2.8s1.2-2.7,2.7-2.7c1.5,0,2.7,1.1,2.7,2.7C83.5,29.8,82.3,30.9,80.7,30.9z
		 M80.7,30.1c1,0,1.8-0.7,1.8-2s-0.9-2-1.8-2c-1,0-1.8,0.7-1.8,2C79,29.5,79.8,30.1,80.7,30.1z"/>
	<path class="st11" d="M93,27.4c0,2.1-1.4,3.4-3.6,3.4h-2.2V24h2.2C91.7,24,93,25.3,93,27.4z M89.4,30.1c1.7,0,2.7-1,2.7-2.7
		c0-1.6-1-2.7-2.7-2.7h-1.2v5.4H89.4z"/>
	<path class="st11" d="M96.6,30.9c-1.5,0-2.7-1.1-2.7-2.8s1.2-2.7,2.7-2.7c1.5,0,2.7,1.1,2.7,2.7C99.3,29.8,98.1,30.9,96.6,30.9z
		 M96.6,30.1c1,0,1.8-0.7,1.8-2s-0.9-2-1.8-2c-1,0-1.8,0.7-1.8,2C94.7,29.5,95.6,30.1,96.6,30.1z"/>
	<path class="st11" d="M103.4,25.4c1.4,0,2.5,1.1,2.5,2.7s-1.1,2.8-2.5,2.8c-1,0-1.6-0.5-2-1.1v1h-0.9v-7.3h0.9v2.9
		C101.7,25.8,102.4,25.4,103.4,25.4z M103.2,26.1c-1,0-1.8,0.8-1.8,2c0,1.3,0.9,2,1.8,2c1,0,1.8-0.8,1.8-2
		C105,26.8,104.2,26.1,103.2,26.1z"/>
	<path class="st11" d="M107.1,23.5h0.9v7.3h-0.9V23.5z"/>
	<path class="st11" d="M111.8,30.9c-1.5,0-2.6-1.1-2.6-2.8s1.1-2.7,2.6-2.7c1.5,0,2.6,1.1,2.6,2.6c0,0.2,0,0.3,0,0.5H110
		c0.1,1.1,0.9,1.7,1.7,1.7c0.8,0,1.3-0.4,1.5-1h1C114.1,30.2,113.2,30.9,111.8,30.9z M110.1,27.8h3.4c0-1.1-0.8-1.6-1.7-1.6
		C110.9,26.1,110.1,26.7,110.1,27.8z"/>
</g>
</svg>
