<?xml version="1.0" encoding="utf-8"?>
<!-- Generator: Adobe Illustrator 24.0.1, SVG Export Plug-In . SVG Version: 6.00 Build 0)  -->
<svg version="1.1" id="Layer_1" xmlns="http://www.w3.org/2000/svg" xmlns:xlink="http://www.w3.org/1999/xlink" x="0px" y="0px"
	 viewBox="0 0 150 150" style="enable-background:new 0 0 150 150;" xml:space="preserve">
<style type="text/css">
	.st0{fill:#FFFFFF;}
	.st1{fill:#0562A1;}
	.st2{fill:none;stroke:#939598;stroke-width:0.7695;stroke-miterlimit:10;}
	.st3{fill:#5E9EC4;}
	.st4{fill:#2682B5;}
	.st5{fill:#0B72B7;}
	.st6{enable-background:new    ;}
	.st7{fill:#414042;}
	.st8{fill:none;stroke:#414042;stroke-width:1.3874;stroke-linecap:round;stroke-miterlimit:10;}
	.st9{fill:none;stroke:#414042;stroke-width:1.3407;stroke-linecap:round;stroke-miterlimit:10;}
	.st10{fill:none;stroke:#414042;stroke-width:1.3292;stroke-linecap:round;stroke-miterlimit:10;}
	.st11{fill:none;stroke:#414042;stroke-width:2.0754;stroke-linecap:round;stroke-linejoin:round;}
	.st12{fill:none;stroke:#414042;stroke-width:2.0754;stroke-linecap:round;stroke-miterlimit:10;}
	.st13{fill:#303030;}
</style>
<title>DesvioDoble</title>
<g>
	<path class="st0" d="M67.2,67.6"/>
	<path class="st0" d="M66.7,69.2"/>
	<polygon class="st1" points="90.6,51.9 90.6,43.4 75.3,48.5 	"/>
	<polygon class="st1" points="52.6,72.6 37.9,61 22.6,66.1 22.6,91 	"/>
	<path class="st2" d="M75.6,105.2"/>
	<polygon class="st1" points="37.9,61 75.3,48.5 84.6,61.8 67.2,67.6 	"/>
	<polygon class="st3" points="67.2,127.5 67.2,67.6 37.9,61 37.9,118.7 	"/>
	<polygon class="st4" points="52.6,93.1 52.6,132.8 119.9,108.2 119.9,49.9 52.6,72.6 22.6,91 22.6,66.1 22.6,124.1 52.6,132.8 	"/>
	<polygon class="st5" points="22.6,91 52.6,99.7 52.6,132.8 22.6,124.1 	"/>
	<g class="st6">
		<path class="st7" d="M34.5,131.6l-2.5,8.1l-1.2-0.4l2.2-7.1l-1.9-0.6l0.3-1L34.5,131.6z"/>
		<path class="st7" d="M40.5,139.7c-0.4,1.4-1.8,2.2-4,1.6c-1.2-0.4-2.3-1.1-2.8-1.9l0.8-0.8c0.4,0.7,1.3,1.3,2.3,1.7
			c1.3,0.4,2.2,0,2.5-0.9s-0.2-1.7-2.1-2.3l-1.9-0.6l1.7-4.2l4.8,1.4l-0.3,1l-3.8-1.1l-0.9,2.2l1,0.3
			C40.3,136.9,41,138.2,40.5,139.7z"/>
	</g>
	<g class="st6">
		<path class="st7" d="M89.7,130.9l-1.6,0.7l0.8,1.9l-1.1,0.5l-0.8-1.9l-4.6,1.9l-0.3-0.8l2.1-6.8l1.3-0.5l-2,6.6l3.2-1.3l-0.7-1.7
			l1.1-0.5l0.7,1.7l1.6-0.7L89.7,130.9z"/>
	</g>
	<g class="st6">
		<path class="st7" d="M95.7,127.9c0.6,1.4,0,2.9-2.1,3.8c-1.2,0.5-2.5,0.6-3.4,0.3l0.2-1.1c0.8,0.3,1.8,0.2,2.8-0.2
			c1.2-0.5,1.7-1.4,1.4-2.2c-0.4-0.9-1.2-1.2-3.1-0.4l-1.9,0.8l-1.3-4.3l4.7-1.9l0.4,1l-3.7,1.5l0.7,2.3l0.9-0.4
			C93.8,125.9,95.2,126.5,95.7,127.9z"/>
	</g>
	<path class="st8" d="M28.8,133.8l-6.8-2"/>
	<path class="st8" d="M52.8,141l-10.1-3"/>
	<path class="st8" d="M97.1,124.8l22.8-8.5"/>
	<path class="st8" d="M53,141l26.9-10.1"/>
	<g class="st6">
		<path class="st7" d="M129.5,81.3c1.5,0,2.7,1.1,2.7,3.4c0,1.3-0.4,2.5-1,3.3l-1-0.6c0.5-0.6,0.9-1.6,0.9-2.7
			c0-1.4-0.6-2.1-1.5-2.1c-1,0-1.6,0.6-1.6,2.7v2l-4.5-0.5v-5h1.1v4L127,86v-1C126.9,82.4,128,81.3,129.5,81.3z"/>
		<path class="st7" d="M127.8,80.3c-2.8,0-4.4-1.6-4.4-3.6c0-2.1,1.6-3.6,4.4-3.6s4.4,1.6,4.4,3.6C132.1,78.7,130.6,80.3,127.8,80.3
			z M127.8,74.2c-2.2,0-3.3,1-3.3,2.4s1.1,2.4,3.3,2.4c2.2,0,3.3-1,3.3-2.4S130,74.2,127.8,74.2z"/>
	</g>
	<path class="st9" d="M128.1,70.9v-21"/>
	<path class="st10" d="M128.1,108V90.1"/>
	<polyline class="st3" points="37.9,61 22.6,91 22.6,91 52.6,99.7 52.6,99.7 67.2,67.6 	"/>
	<path class="st1" d="M52.5,99.7"/>
	<path class="st3" d="M51.8,96.6"/>
	<polygon class="st4" points="52.6,99.7 52.6,72.6 67.2,67.6 	"/>
	<path class="st5" d="M22.6,66.1V91l29.9,8.7V72.6L22.6,66.1z M47.7,94.3l-20.4-5.9V71.5l20.4,4.4V94.3z"/>
	<g class="st6">
		<path class="st7" d="M18.3,80c-1.5,0-2.6-1.2-2.6-2.8c0-0.8,0.3-1.5,0.8-2l0.5,0.5c-0.4,0.4-0.6,0.9-0.6,1.5
			c0,1.2,0.8,2.1,1.9,2.1s1.9-0.9,1.9-2.1c0-0.6-0.2-1.1-0.6-1.5l0.5-0.5c0.5,0.5,0.8,1.2,0.8,2C20.9,78.8,19.8,80,18.3,80z"/>
	</g>
	<g class="st6">
		<path class="st7" d="M19.6,71.2V74l1.3,0.6v0.8l-5-2.4v-0.7l5.1-2.4v0.8L19.6,71.2z M19,71.5l-2.5,1.1l2.5,1.1V71.5z"/>
	</g>
	<g class="st6">
		<path class="st7" d="M15.9,69.2v-0.8h4.4v-2.9h0.6v3.6L15.9,69.2C15.9,69.1,15.9,69.2,15.9,69.2z"/>
	</g>
	<g class="st6">
		<path class="st7" d="M19.6,61.7v2.8l1.3,0.6v0.7l-5.1-2.4v-0.7l5.1-2.4v0.8L19.6,61.7z M19,61.9L16.5,63l2.5,1.1V61.9z"/>
		<path class="st7" d="M15.9,59.5v-2.2c0-1.7,1-2.8,2.5-2.8s2.5,1.2,2.5,2.8v2.2H15.9z M20.2,57.3c0-1.3-0.8-2.1-1.9-2.1
			s-1.9,0.8-1.9,2.1v1.5h3.8V57.3z"/>
		<path class="st7" d="M18.3,53.7c-1.5,0-2.6-1.2-2.6-2.8s1.1-2.8,2.6-2.8s2.6,1.2,2.6,2.8C20.9,52.6,19.8,53.7,18.3,53.7z M18.3,49
			c-1.1,0-1.9,0.9-1.9,2c0,1.2,0.8,2.1,1.9,2.1s1.9-0.9,1.9-2.1C20.3,49.9,19.4,49,18.3,49z"/>
	</g>
	<polyline class="st11" points="16.1,82.9 40,82.9 40,74 	"/>
	<line class="st12" x1="40" y1="70" x2="40" y2="53.5"/>
	<path class="st7" d="M40,54.1c-1.7,1.7-5.2,2.6-7.4,2.6c3.3-2.3,5.8-5.4,7.4-9.1c1.5,3.7,4.4,6.6,7.4,9.1
		C45,56.5,41.9,55.9,40,54.1z"/>
	<polygon class="st5" points="22.6,66.1 22.6,70.8 52.6,77.2 52.6,72.7 	"/>
	<polygon class="st5" points="90.6,43.4 90.6,51.9 104.7,54.9 93.6,52.5 93.6,48.1 112.2,52.2 104.7,54.9 119.9,49.9 	"/>
	<line class="st12" x1="99.1" y1="56.6" x2="99.1" y2="38.8"/>
	<path class="st7" d="M99.1,39.5C97.5,41.1,94.2,42,92,42c3.1-2.2,5.5-5.2,7.1-8.6c1.6,3.5,4.1,6.4,7.1,8.6
		C103.7,41.8,100.8,41.2,99.1,39.5z"/>
	<polygon class="st3" points="104.7,54.9 84.6,61.8 75.3,48.5 	"/>
</g>
<g>
	<path class="st5" d="M74.3,12.2c0,2.9-2,4.9-5.1,4.9h-3.7V7.3h3.7C72.3,7.3,74.3,9.3,74.3,12.2z M69,15.1c1.8,0,2.9-1,2.9-2.8
		S70.8,9.4,69,9.4h-1.1v5.7C67.9,15.1,69,15.1,69,15.1z"/>
	<path class="st5" d="M84.5,12.2c0,2.9-2,4.9-5.1,4.9h-3.7V7.3h3.7C82.4,7.3,84.5,9.3,84.5,12.2z M79.1,15.1c1.8,0,2.9-1,2.9-2.8
		s-1.1-2.9-2.9-2.9H78v5.7C78,15.1,79.1,15.1,79.1,15.1z"/>
</g>
<g>
	<path class="st13" d="M49.7,26.6c0,2.1-1.4,3.4-3.6,3.4h-2.2v-6.8h2.2C48.3,23.3,49.7,24.6,49.7,26.6z M46,29.3
		c1.7,0,2.7-1,2.7-2.7c0-1.6-1-2.7-2.7-2.7h-1.2v5.3H46V29.3z"/>
	<path class="st13" d="M53.1,30.1c-1.5,0-2.6-1.1-2.6-2.8s1.1-2.7,2.6-2.7c1.5,0,2.6,1.1,2.6,2.6c0,0.2,0,0.3,0,0.5h-4.2
		c0.1,1.1,0.9,1.7,1.7,1.7c0.8,0,1.3-0.4,1.5-1h1C55.3,29.3,54.5,30.1,53.1,30.1z M51.4,27h3.4c0-1.1-0.8-1.6-1.7-1.6
		C52.3,25.3,51.5,26,51.4,27z"/>
	<path class="st13" d="M58.8,30.1c-1.3,0-2.2-0.7-2.2-1.6h0.9c0,0.5,0.5,0.9,1.3,0.9c0.7,0,1.1-0.3,1.1-0.8c0-1.2-3.2-0.5-3.2-2.5
		c0-0.9,0.8-1.5,2-1.5c1.2,0,2,0.7,2.1,1.7h-0.9c0-0.5-0.4-1-1.2-1c-0.7,0-1.1,0.3-1.1,0.8c0,1.3,3.2,0.5,3.2,2.5
		C60.8,29.5,60,30.1,58.8,30.1z"/>
	<path class="st13" d="M62.4,24.7l1.6,4.6l1.6-4.6h1L64.6,30h-1.1l-2.1-5.3C61.4,24.7,62.4,24.7,62.4,24.7z"/>
	<path class="st13" d="M68.9,22.4v0.8l-2.1,1.1v-0.7L68.9,22.4z M67.5,24.7h0.9V30h-0.9V24.7z"/>
	<path class="st13" d="M72.3,30.1c-1.5,0-2.7-1.1-2.7-2.8s1.2-2.7,2.7-2.7c1.5,0,2.7,1.1,2.7,2.7C75,29,73.8,30.1,72.3,30.1z
		 M72.3,29.3c1,0,1.8-0.7,1.8-2c0-1.3-0.9-2-1.8-2s-1.8,0.7-1.8,2C70.5,28.7,71.3,29.3,72.3,29.3z"/>
	<path class="st13" d="M84.6,26.6c0,2.1-1.4,3.4-3.6,3.4h-2.2v-6.8H81C83.3,23.3,84.6,24.6,84.6,26.6z M81,29.3c1.7,0,2.7-1,2.7-2.7
		c0-1.6-1-2.7-2.7-2.7h-1.2v5.3H81V29.3z"/>
	<path class="st13" d="M88.2,30.1c-1.5,0-2.7-1.1-2.7-2.8s1.2-2.7,2.7-2.7s2.7,1.1,2.7,2.7C90.9,29,89.7,30.1,88.2,30.1z M88.2,29.3
		c1,0,1.8-0.7,1.8-2c0-1.3-0.9-2-1.8-2c-1,0-1.8,0.7-1.8,2C86.3,28.7,87.2,29.3,88.2,29.3z"/>
	<path class="st13" d="M95,24.6c1.4,0,2.5,1.1,2.5,2.7s-1.1,2.8-2.5,2.8c-1,0-1.6-0.5-2-1.1v1h-0.9v-7.3H93v2.9
		C93.3,25.1,94,24.6,95,24.6z M94.8,25.3c-1,0-1.8,0.8-1.8,2c0,1.3,0.9,2,1.8,2c1,0,1.8-0.8,1.8-2C96.6,26.1,95.8,25.3,94.8,25.3z"
		/>
	<path class="st13" d="M98.7,22.8h0.9v7.3h-0.9V22.8z"/>
	<path class="st13" d="M103.5,30.1c-1.5,0-2.6-1.1-2.6-2.8s1.1-2.7,2.6-2.7c1.5,0,2.6,1.1,2.6,2.6c0,0.2,0,0.3,0,0.5h-4.3
		c0.1,1.1,0.9,1.7,1.7,1.7c0.8,0,1.3-0.4,1.5-1h1C105.7,29.3,104.8,30.1,103.5,30.1z M101.7,27h3.4c0-1.1-0.8-1.6-1.7-1.6
		C102.5,25.3,101.7,26,101.7,27z"/>
</g>
</svg>
