<?xml version="1.0" encoding="utf-8"?>
<!-- Generator: Adobe Illustrator 24.0.1, SVG Export Plug-In . SVG Version: 6.00 Build 0)  -->
<svg version="1.1" id="Layer_1" xmlns="http://www.w3.org/2000/svg" xmlns:xlink="http://www.w3.org/1999/xlink" x="0px" y="0px"
	 viewBox="0 0 150 150" style="enable-background:new 0 0 150 150;" xml:space="preserve">
<style type="text/css">
	.st0{enable-background:new    ;}
	.st1{fill:#414042;}
	.st2{fill:none;stroke:#414042;stroke-width:1.4863;stroke-linecap:round;stroke-miterlimit:10;}
	.st3{fill:#FFFFFF;}
	.st4{fill:#EF4343;}
	.st5{fill:#B62025;}
	.st6{fill:none;stroke:#939598;stroke-width:0.8301;stroke-miterlimit:10;}
	.st7{fill:#DC2126;}
	.st8{fill:none;stroke:#414042;stroke-width:1.4462;stroke-linecap:round;stroke-miterlimit:10;}
	.st9{fill:none;stroke:#414042;stroke-width:1.4193;stroke-linecap:round;stroke-miterlimit:10;}
	.st10{fill:#2682B5;}
	.st11{fill:#F15C5B;}
	.st12{fill:#EE3441;}
	.st13{fill:none;stroke:#414042;stroke-width:2.2228;stroke-linecap:round;stroke-linejoin:round;}
	.st14{fill:none;stroke:#414042;stroke-width:2.2228;stroke-linecap:round;stroke-miterlimit:10;}
	.st15{fill:#303030;}
</style>
<title>DesvioSimples</title>
<g>
	<g class="st0">
		<path class="st1" d="M23.7,81.3c-1.6,0-2.7-1.3-2.7-2.9c0-0.9,0.3-1.6,0.9-2.2l0.5,0.5c-0.4,0.4-0.7,1-0.7,1.6
			c0,1.3,0.9,2.2,2.1,2.2s2.1-1,2.1-2.2c0-0.6-0.2-1.2-0.7-1.6l0.5-0.5c0.6,0.5,0.9,1.3,0.9,2.2C26.4,80,25.2,81.3,23.7,81.3z"/>
	</g>
	<g class="st0">
		<path class="st1" d="M25.1,71.9v2.9l1.4,0.6v0.8L21,73.7v-0.8l5.4-2.5v0.9L25.1,71.9z M24.4,72.1l-2.6,1.2l2.6,1.2V72.1z"/>
	</g>
	<g class="st0">
		<path class="st1" d="M20.9,69.8V69h4.7v-3h0.7v3.8H20.9z"/>
	</g>
	<g class="st0">
		<path class="st1" d="M25.1,61.6v2.9l1.4,0.6V66L21,63.4v-0.8l5.4-2.5V61L25.1,61.6z M24.4,61.9l-2.6,1.2l2.6,1.2V61.9z"/>
		<path class="st1" d="M20.9,59.4V57c0-1.8,1.1-3,2.6-3s2.6,1.2,2.6,3v2.3h-5.2V59.4z M25.7,57c0-1.4-0.8-2.3-2.1-2.3
			c-1.3,0-2.1,0.9-2.1,2.3v1.5h4L25.7,57L25.7,57z"/>
		<path class="st1" d="M23.7,53.2c-1.6,0-2.7-1.3-2.7-2.9c0-1.7,1.2-2.9,2.7-2.9s2.7,1.3,2.7,2.9C26.4,52,25.2,53.2,23.7,53.2z
			 M23.7,48.1c-1.2,0-2.1,0.9-2.1,2.2s0.9,2.2,2.1,2.2s2.1-0.9,2.1-2.2C25.7,49,24.9,48.1,23.7,48.1z"/>
	</g>
	<path class="st2" d="M60.7,147l-10.9-3.2"/>
	<path class="st3" d="M76.3,68.3"/>
	<path class="st3" d="M75.8,69.9"/>
	<polygon class="st4" points="116.6,54.6 85,65.4 85,47.8 	"/>
	<polygon class="st5" points="60.7,73.5 45,61.1 29,66.4 	"/>
	<path class="st6" d="M85.3,108.4"/>
	<polygon class="st5" points="45,61.1 85,47.8 85,65.4 76.3,68.3 	"/>
	<path class="st7" d="M29,66.4"/>
	<g class="st0">
		<path class="st1" d="M41.3,136.8l-2.6,8.7l-1.3-0.4l2.3-7.6l-2.1-0.6l0.3-1.1L41.3,136.8z"/>
		<path class="st1" d="M47.9,145.4c-0.5,1.5-2,2.3-4.3,1.7c-1.3-0.4-2.4-1.2-3-2.1l0.9-0.8c0.5,0.8,1.4,1.5,2.4,1.8
			c1.4,0.4,2.3,0,2.6-0.9c0.3-1-0.2-1.8-2.3-2.4l-2.1-0.6l1.9-4.4l5.2,1.6l-0.3,1.1l-4-1.2l-1,2.3l1,0.3
			C47.6,142.5,48.3,143.8,47.9,145.4z"/>
	</g>
	<g class="st0">
		<path class="st1" d="M90.6,138.7c0.6,1.5,0,3-2.3,3.9c-1.3,0.5-2.6,0.7-3.6,0.3l0.2-1.2c0.8,0.3,2,0.3,3-0.2
			c1.3-0.6,1.9-1.5,1.5-2.3c-0.4-0.9-1.3-1.2-2.7-0.6l-0.7,0.3l-0.4-0.9l1.1-3.5l-4.2,1.8l-0.4-1.1l5.8-2.3l0.3,0.8l-1.2,3.6
			C88.8,136.7,90,137.3,90.6,138.7z"/>
	</g>
	<g class="st0">
		<path class="st1" d="M97.5,135.7c0.6,1.5,0,3-2.3,4c-1.3,0.5-2.6,0.6-3.6,0.3l0.2-1.2c0.8,0.3,2,0.3,3-0.2
			c1.4-0.6,1.9-1.5,1.5-2.3c-0.4-1-1.3-1.3-3.3-0.5l-2,0.8l-1.4-4.6l4.9-2.1l0.4,1.1l-3.9,1.6l0.7,2.4l1-0.4
			C95.4,133.6,96.9,134.3,97.5,135.7z"/>
	</g>
	<path class="st2" d="M100.4,132.6l16.7-6.3"/>
	<path class="st2" d="M61.1,146.9l20-7.5"/>
	<g class="st0">
		<path class="st1" d="M127.2,88.8c1.6,0,2.8,1.2,2.8,3.6c0,1.4-0.4,2.6-1.1,3.5l-1.1-0.6c0.6-0.6,1-1.7,1-2.8
			c0-1.5-0.7-2.3-1.7-2.3c-1.1,0-1.7,0.7-1.7,2.8v2.2l-4.8-0.5v-5.4h1.2v4.2l2.5,0.3v-1.1C124.5,89.9,125.6,88.8,127.2,88.8z"/>
		<path class="st1" d="M125.4,87.7c-2.9,0-4.7-1.7-4.7-3.9s1.7-3.8,4.7-3.8c2.9,0,4.7,1.7,4.7,3.8C130.1,86,128.4,87.7,125.4,87.7z
			 M125.4,81.3c-2.3,0-3.5,1.1-3.5,2.5s1.2,2.5,3.5,2.5s3.5-1.1,3.5-2.5C128.9,82.3,127.7,81.3,125.4,81.3z"/>
	</g>
	<path class="st8" d="M125.7,77.7V55"/>
	<path class="st9" d="M125.7,117.4V98.1"/>
	<polygon class="st5" points="61,73.4 45.3,61.1 29,66.4 29,93.1 	"/>
	<polygon class="st10" points="61,102.5 61,73.4 76.6,68.1 	"/>
	<polyline class="st11" points="45.3,61.1 29,93.1 29,93.1 61,102.5 61,102.5 76.6,68.1 	"/>
	<polygon class="st12" points="29,93.1 61,102.5 61,137.9 29,128.6 	"/>
	<path class="st12" d="M29,66.8v26.6l32.1,9.4V73.7L29,66.8z M55.9,97l-21.8-6.3V72.6l21.8,4.7V97z"/>
	<polyline class="st7" points="60.7,138.1 60.7,73.5 60.7,138.1 117.1,117.4 116.6,54.6 60.7,73.5 	"/>
	<polyline class="st13" points="21.1,84.7 46.9,84.7 46.9,75.3 	"/>
	<line class="st14" x1="46.9" y1="71.2" x2="46.9" y2="52.3"/>
	<path class="st1" d="M46.9,52.8c-1.9,1.9-5.5,2.6-8,2.8c3.5-2.4,6.3-5.9,8-9.8c1.9,3.9,4.6,7.2,8,9.8
		C52.1,55.4,48.9,54.8,46.9,52.8z"/>
	<polygon class="st12" points="29,66.4 29,71.5 60.7,78.3 60.7,73.5 	"/>
	<path class="st2" d="M37.1,140.2l-8.3-2.4"/>
</g>
<g>
	<path class="st12" d="M75.1,12.1c0,2.9-2,4.9-5.1,4.9h-3.7V7.2h3.7C73,7.2,75.1,9.2,75.1,12.1z M69.8,14.9c1.8,0,2.9-1,2.9-2.8
		c0-1.8-1.1-2.9-2.9-2.9h-1.1v5.7H69.8z"/>
	<path class="st12" d="M80,17.1c-2.1,0-3.8-1-3.8-3h2.5c0.1,0.8,0.5,1.1,1.2,1.1c0.7,0,1.1-0.4,1.1-0.9c0-1.8-4.9-0.8-4.9-4.3
		c0-1.9,1.5-2.9,3.6-2.9c2.1,0,3.6,1.1,3.7,2.9h-2.6c0-0.6-0.5-1-1.1-1c-0.6,0-1,0.3-1,0.9c0,1.7,4.9,0.9,4.9,4.2
		C83.5,15.7,82.3,17.1,80,17.1z"/>
</g>
<g>
	<path class="st15" d="M47.1,26.6c0,2.1-1.4,3.4-3.6,3.4h-2.1v-6.8h2.1C45.7,23.2,47.1,24.5,47.1,26.6z M43.5,29.3
		c1.8,0,2.7-1,2.7-2.7c0-1.7-0.9-2.7-2.7-2.7h-1.2v5.4H43.5z"/>
	<path class="st15" d="M50.6,30.1c-1.5,0-2.7-1.1-2.7-2.8c0-1.7,1.1-2.8,2.7-2.8c1.6,0,2.6,1.1,2.6,2.6c0,0.2,0,0.4,0,0.5h-4.3
		c0.1,1.1,0.8,1.7,1.7,1.7c0.8,0,1.3-0.4,1.5-1h1C52.8,29.4,52,30.1,50.6,30.1z M48.9,27h3.4c0-1-0.8-1.6-1.7-1.6
		C49.7,25.3,49,25.9,48.9,27z"/>
	<path class="st15" d="M56.3,30.1c-1.3,0-2.1-0.7-2.2-1.7H55c0,0.5,0.5,0.9,1.3,0.9c0.7,0,1.1-0.4,1.1-0.8c0-1.2-3.2-0.5-3.2-2.5
		c0-0.8,0.8-1.5,2-1.5c1.2,0,2,0.6,2,1.7h-0.9c0-0.5-0.5-0.9-1.2-0.9c-0.7,0-1,0.3-1,0.7c0,1.3,3.1,0.6,3.2,2.5
		C58.3,29.5,57.5,30.1,56.3,30.1z"/>
	<path class="st15" d="M59.9,24.7l1.7,4.6l1.7-4.6h1L62,30h-1l-2.1-5.4H59.9z"/>
	<path class="st15" d="M66.4,22.4v0.8l-2.1,1.1v-0.7L66.4,22.4z M65,24.7h0.9V30H65V24.7z"/>
	<path class="st15" d="M69.8,30.1c-1.5,0-2.7-1.1-2.7-2.8c0-1.7,1.2-2.8,2.7-2.8c1.5,0,2.7,1.1,2.7,2.8C72.6,29,71.3,30.1,69.8,30.1
		z M69.8,29.3c0.9,0,1.8-0.6,1.8-2c0-1.4-0.9-2-1.8-2c-0.9,0-1.8,0.6-1.8,2C68,28.7,68.9,29.3,69.8,29.3z"/>
	<path class="st15" d="M78.5,30.1c-1.4,0-2.3-0.8-2.4-1.9h1c0.1,0.6,0.5,1.1,1.4,1.1c0.9,0,1.4-0.5,1.4-1.1c0-1.8-3.7-0.7-3.7-3.2
		c0-1.1,0.9-1.9,2.3-1.9c1.3,0,2.2,0.7,2.3,1.8h-1c-0.1-0.5-0.5-1-1.3-1c-0.7,0-1.3,0.4-1.3,1.1c0,1.8,3.7,0.7,3.7,3.2
		C80.8,29.1,80,30.1,78.5,30.1z"/>
	<path class="st15" d="M82,23.2c0-0.3,0.3-0.6,0.6-0.6c0.3,0,0.6,0.3,0.6,0.6c0,0.3-0.3,0.6-0.6,0.6C82.3,23.8,82,23.5,82,23.2z
		 M82.1,24.7H83V30h-0.9V24.7z"/>
	<path class="st15" d="M92.3,27c0-1.1-0.6-1.7-1.5-1.7c-0.9,0-1.5,0.6-1.5,1.7v3h-0.9v-3c0-1.1-0.6-1.7-1.5-1.7
		c-0.9,0-1.5,0.6-1.5,1.7v3h-0.9v-5.4h0.9v0.8c0.4-0.6,1-0.9,1.7-0.9c0.9,0,1.6,0.4,2,1.2c0.3-0.8,1.1-1.2,1.9-1.2
		c1.2,0,2.2,0.8,2.2,2.3V30h-0.9V27z"/>
	<path class="st15" d="M97.6,24.6c1.4,0,2.6,1.1,2.6,2.8c0,1.7-1.1,2.8-2.6,2.8c-1,0-1.7-0.5-2-1.1v3.5h-0.9v-7.9h0.9v1
		C95.9,25.1,96.6,24.6,97.6,24.6z M97.4,25.3c-1,0-1.8,0.7-1.8,2c0,1.3,0.9,2,1.8,2c1,0,1.8-0.7,1.8-2
		C99.2,26.1,98.4,25.3,97.4,25.3z"/>
	<path class="st15" d="M101.3,22.8h0.9V30h-0.9V22.8z"/>
	<path class="st15" d="M106,30.1c-1.5,0-2.7-1.1-2.7-2.8c0-1.7,1.1-2.8,2.7-2.8c1.6,0,2.6,1.1,2.6,2.6c0,0.2,0,0.4,0,0.5h-4.3
		c0.1,1.1,0.8,1.7,1.7,1.7c0.8,0,1.3-0.4,1.5-1h1C108.2,29.4,107.4,30.1,106,30.1z M104.3,27h3.4c0-1-0.8-1.6-1.7-1.6
		C105.1,25.3,104.4,25.9,104.3,27z"/>
</g>
</svg>
