<?xml version="1.0" encoding="utf-8"?>
<!-- Generator: Adobe Illustrator 24.0.1, SVG Export Plug-In . SVG Version: 6.00 Build 0)  -->
<svg version="1.1" id="Layer_1" xmlns="http://www.w3.org/2000/svg" xmlns:xlink="http://www.w3.org/1999/xlink" x="0px" y="0px"
	 viewBox="0 0 150 186.6" style="enable-background:new 0 0 150 186.6;" xml:space="preserve">
<style type="text/css">
	.st0{fill:#EE4443;}
	.st1{fill:#B52526;}
	.st2{fill:#EE3742;}
	.st3{fill:#DB2627;}
	.st4{enable-background:new    ;}
	.st5{fill:#EE3441;}
	.st6{fill:none;stroke:#414042;stroke-width:1.6077;stroke-linecap:round;stroke-miterlimit:10;}
	.st7{fill:none;stroke:#414042;stroke-width:1.5498;stroke-linecap:round;stroke-miterlimit:10;}
	.st8{fill:#414042;}
</style>
<title>ConductoSimples</title>
<g>
	<polygon class="st0" points="115.9,53.7 84.5,57.9 84.5,42.9 	"/>
	<polygon class="st1" points="35.1,49 84.5,42.9 84.5,57.9 66.2,60.3 	"/>
	<polygon class="st2" points="66.2,163.6 66.2,60.3 35.1,49 35.1,147.7 	"/>
	<polyline class="st3" points="66.2,60.3 115.9,53.7 115.9,157.4 66.2,163.6 66.2,60.3 	"/>
</g>
<g class="st4">
	<path class="st5" d="M34.4,27v1.2h-7.1v-9.8h6.9v1.2h-5.5v3h4.9v1.2h-4.9V27H34.4z"/>
	<path class="st5" d="M42.8,28.2l-3-4.1l-2.9,4.1h-1.6l3.7-5l-3.5-4.8h1.6l2.8,3.8l2.7-3.8h1.5l-3.5,4.8l3.7,5.1H42.8z"/>
	<path class="st5" d="M47.6,19.6h-3.4v-1.2h8.1v1.2H49v8.6h-1.4V19.6z"/>
	<path class="st5" d="M60.4,28.2l-2.1-3c-0.2,0-0.4,0-0.6,0h-2.4v3h-1.4v-9.8h3.8c2.6,0,4.1,1.3,4.1,3.4c0,1.5-0.8,2.6-2.2,3.1
		l2.3,3.3H60.4z M60.4,21.8c0-1.4-0.9-2.2-2.7-2.2h-2.4V24h2.4C59.4,24,60.4,23.2,60.4,21.8z"/>
	<path class="st5" d="M70.3,25.7h-5.2L64,28.2h-1.4l4.5-9.8h1.4l4.5,9.8h-1.5L70.3,25.7z M69.8,24.6l-2.1-4.8l-2.1,4.8H69.8z"/>
	<path class="st5" d="M73.4,23.3c0-2.9,2.2-5,5.2-5c1.5,0,2.8,0.5,3.7,1.5l-0.9,0.9c-0.8-0.8-1.7-1.2-2.8-1.2
		c-2.2,0-3.9,1.6-3.9,3.8c0,2.2,1.6,3.8,3.9,3.8c1.1,0,2-0.4,2.8-1.2l0.9,0.9c-0.9,1-2.2,1.5-3.8,1.5C75.6,28.3,73.4,26.2,73.4,23.3
		z"/>
	<path class="st5" d="M83.4,23.3c0-2.9,2.2-5,5.2-5c1.5,0,2.8,0.5,3.7,1.5l-0.9,0.9c-0.8-0.8-1.7-1.2-2.8-1.2
		c-2.2,0-3.9,1.6-3.9,3.8c0,2.2,1.6,3.8,3.9,3.8c1.1,0,2-0.4,2.8-1.2l0.9,0.9c-0.9,1-2.2,1.5-3.8,1.5C85.6,28.3,83.4,26.2,83.4,23.3
		z"/>
	<path class="st5" d="M94.3,18.3h1.4v9.8h-1.4V18.3z"/>
	<path class="st5" d="M97.9,23.3c0-2.9,2.2-5,5.2-5c3,0,5.2,2.1,5.2,5c0,2.9-2.2,5-5.2,5C100.1,28.3,97.9,26.1,97.9,23.3z
		 M106.9,23.3c0-2.2-1.6-3.8-3.8-3.8c-2.2,0-3.8,1.6-3.8,3.8c0,2.2,1.6,3.8,3.8,3.8C105.3,27,106.9,25.4,106.9,23.3z M104,15.7h1.7
		l-2.4,1.8h-1.3L104,15.7z"/>
	<path class="st5" d="M118.9,18.3v9.8h-1.2l-5.9-7.3v7.3h-1.4v-9.8h1.2l5.9,7.3v-7.3H118.9z"/>
</g>
<polyline class="st6" points="58.1,165.4 66.2,169.3 81.4,167.5 "/>
<line class="st7" x1="29.7" y1="49.9" x2="29.7" y2="84"/>
<g class="st4">
	<path class="st8" d="M24.4,105.6h9.2v1.3h-8.1v2.1h-1.1V105.6z"/>
	<path class="st8" d="M29,103.6c-3,0-4.7-1.6-4.7-3.8c0-2.1,1.7-3.8,4.7-3.8c3,0,4.7,1.6,4.7,3.8C33.7,102,32,103.6,29,103.6z
		 M29,97.4c-2.4,0-3.5,1-3.5,2.4c0,1.4,1.2,2.5,3.5,2.5c2.4,0,3.5-1,3.5-2.5C32.5,98.4,31.3,97.4,29,97.4z"/>
	<path class="st8" d="M29,94.8c-3,0-4.7-1.6-4.7-3.8c0-2.1,1.7-3.8,4.7-3.8c3,0,4.7,1.6,4.7,3.8C33.7,93.2,32,94.8,29,94.8z
		 M29,88.6c-2.4,0-3.5,1-3.5,2.4c0,1.4,1.2,2.4,3.5,2.4c2.4,0,3.5-1,3.5-2.4C32.5,89.6,31.3,88.6,29,88.6z"/>
</g>
<line class="st7" x1="29.7" y1="109.9" x2="29.7" y2="146.1"/>
<g class="st4">
	<path class="st8" d="M46.4,164.8l-0.5,1l-5.8-3.1l0.4-0.8l5-1.4c1.3-0.4,1.7-0.8,2-1.3c0.4-0.8,0.1-1.7-1-2.3
		c-0.9-0.5-1.7-0.6-2.5-0.2l-0.4-1.1c1-0.4,2.4-0.3,3.6,0.4c1.7,0.9,2.3,2.4,1.6,3.8c-0.4,0.8-1,1.4-2.7,1.8l-3.8,1.1L46.4,164.8z"
		/>
	<path class="st8" d="M49,162.2c1.4-2.6,3.6-3.4,5.5-2.4c1.9,1,2.5,3.3,1.1,5.9c-1.4,2.6-3.6,3.4-5.5,2.4
		C48.2,167.1,47.6,164.8,49,162.2z M54.4,165.1c1.1-2.1,0.8-3.6-0.5-4.3c-1.3-0.7-2.7-0.1-3.8,2s-0.8,3.6,0.5,4.3
		C51.9,167.8,53.3,167.2,54.4,165.1z"/>
</g>
<g class="st4">
	<path class="st8" d="M90.4,170.4l0.1,1.1l-6.6,0.8l-0.1-0.9l3.3-4c0.9-1.1,1-1.7,0.9-2.2c-0.1-0.9-0.8-1.4-2.1-1.3
		c-1,0.1-1.7,0.5-2.2,1.3l-1-0.7c0.6-1,1.8-1.6,3.2-1.8c1.9-0.2,3.3,0.6,3.4,2.2c0.1,0.9-0.1,1.7-1.2,3.1l-2.5,3L90.4,170.4z"/>
	<path class="st8" d="M91,166.8c-0.4-3,1-4.9,3.2-5.1c2.1-0.3,3.9,1.3,4.3,4.2c0.4,3-1,4.9-3.2,5.1C93.2,171.3,91.4,169.8,91,166.8z
		 M97.2,166.1c-0.3-2.3-1.4-3.4-2.8-3.2c-1.4,0.2-2.3,1.5-2,3.8c0.3,2.3,1.4,3.4,2.9,3.2C96.6,169.7,97.5,168.4,97.2,166.1z"/>
</g>
<line class="st6" x1="100.1" y1="164.4" x2="115.9" y2="162.6"/>
<line class="st6" x1="35.1" y1="153.4" x2="41.4" y2="156.7"/>
</svg>
