<?xml version="1.0" encoding="utf-8"?>
<!-- Generator: Adobe Illustrator 24.0.1, SVG Export Plug-In . SVG Version: 6.00 Build 0)  -->
<svg version="1.1" id="Layer_1" xmlns="http://www.w3.org/2000/svg" xmlns:xlink="http://www.w3.org/1999/xlink" x="0px" y="0px"
	 viewBox="0 0 150 186.6" style="enable-background:new 0 0 150 186.6;" xml:space="preserve">
<style type="text/css">
	.st0{fill:#0B72B7;}
	.st1{fill:#0562A1;}
	.st2{fill:#2682B5;}
	.st3{fill:none;stroke:#414042;stroke-width:1.6077;stroke-linecap:round;stroke-miterlimit:10;}
	.st4{fill:none;stroke:#414042;stroke-width:1.5498;stroke-linecap:round;stroke-miterlimit:10;}
	.st5{enable-background:new    ;}
	.st6{fill:#414042;}
</style>
<g>
	<polygon class="st0" points="115.9,53.7 84.5,57.9 84.5,42.9 	"/>
	<polygon class="st1" points="35.1,49 84.5,42.9 84.5,57.9 66.2,60.3 	"/>
	<polygon class="st0" points="66.2,163.6 66.2,60.3 35.1,49 35.1,147.7 	"/>
	<polyline class="st2" points="66.2,60.3 115.9,53.7 115.9,157.4 66.2,163.6 66.2,60.3 	"/>
</g>
<polyline class="st3" points="58.1,165.4 66.2,169.3 81.4,167.5 "/>
<line class="st4" x1="29.7" y1="49.9" x2="29.7" y2="84"/>
<g class="st5">
	<path class="st6" d="M24.4,105.6h9.2v1.3h-8.1v2.1h-1.1V105.6z"/>
	<path class="st6" d="M29,103.6c-3,0-4.7-1.6-4.7-3.8c0-2.1,1.7-3.8,4.7-3.8c3,0,4.7,1.6,4.7,3.8C33.7,102,32,103.6,29,103.6z
		 M29,97.4c-2.4,0-3.5,1-3.5,2.4c0,1.4,1.2,2.5,3.5,2.5c2.4,0,3.5-1,3.5-2.5C32.5,98.4,31.3,97.4,29,97.4z"/>
	<path class="st6" d="M29,94.8c-3,0-4.7-1.6-4.7-3.8c0-2.1,1.7-3.8,4.7-3.8c3,0,4.7,1.6,4.7,3.8C33.7,93.2,32,94.8,29,94.8z
		 M29,88.6c-2.4,0-3.5,1-3.5,2.4c0,1.4,1.2,2.4,3.5,2.4c2.4,0,3.5-1,3.5-2.4C32.5,89.6,31.3,88.6,29,88.6z"/>
</g>
<line class="st4" x1="29.7" y1="109.9" x2="29.7" y2="146.1"/>
<g class="st5">
	<path class="st6" d="M46.4,164.5l-0.5,1l-5.8-3.1l0.4-0.8l5-1.4c1.3-0.4,1.7-0.8,2-1.3c0.4-0.8,0.1-1.7-1-2.3
		c-0.9-0.5-1.7-0.6-2.5-0.2l-0.4-1.1c1-0.4,2.4-0.3,3.6,0.4c1.7,0.9,2.3,2.4,1.6,3.8c-0.4,0.8-1,1.4-2.7,1.8l-3.8,1.1L46.4,164.5z"
		/>
	<path class="st6" d="M49,162c1.4-2.6,3.6-3.4,5.5-2.4c1.9,1,2.5,3.3,1.1,5.9c-1.4,2.6-3.6,3.4-5.5,2.4
		C48.2,166.9,47.5,164.6,49,162z M54.4,164.9c1.1-2.1,0.8-3.6-0.5-4.3c-1.3-0.7-2.7-0.1-3.8,2s-0.8,3.6,0.5,4.3
		C51.9,167.5,53.3,167,54.4,164.9z"/>
</g>
<g class="st5">
	<path class="st6" d="M90.4,170.4l0.1,1.1l-6.6,0.8l-0.1-0.9l3.3-4c0.9-1.1,1-1.7,0.9-2.2c-0.1-0.9-0.8-1.4-2.1-1.3
		c-1,0.1-1.7,0.5-2.2,1.3l-1-0.7c0.6-1,1.8-1.6,3.2-1.8c1.9-0.2,3.3,0.6,3.4,2.2c0.1,0.9-0.1,1.7-1.2,3.1l-2.5,3L90.4,170.4z"/>
	<path class="st6" d="M91,166.8c-0.4-3,1-4.9,3.2-5.1c2.1-0.3,3.9,1.3,4.3,4.2c0.4,3-1,4.9-3.2,5.1C93.2,171.3,91.4,169.8,91,166.8z
		 M97.2,166.1c-0.3-2.3-1.4-3.4-2.8-3.2c-1.4,0.2-2.3,1.5-2,3.8c0.3,2.3,1.4,3.4,2.9,3.2C96.6,169.7,97.5,168.4,97.2,166.1z"/>
</g>
<line class="st3" x1="100.1" y1="164.4" x2="115.9" y2="162.6"/>
<line class="st3" x1="35.1" y1="153.4" x2="41.4" y2="156.7"/>
<g>
	<path class="st0" d="M34.1,18.2h1.4v10.1h-1.4V18.2z"/>
	<path class="st0" d="M46.9,18.2v10.1h-1.2l-6-7.5v7.5h-1.4V18.2h1.2l6.1,7.5v-7.5H46.9z"/>
	<path class="st0" d="M53.5,24.8v3.5h-1.4v-3.5l-4-6.6h1.5l3.2,5.3l3.2-5.3h1.4L53.5,24.8z"/>
	<path class="st0" d="M65.7,27.1v1.3h-7.3V18.2h7.1v1.3h-5.7v3.1h5.1v1.2h-5.1v3.3H65.7z"/>
	<path class="st0" d="M66.8,23.3c0-3,2.3-5.2,5.4-5.2c1.6,0,2.9,0.5,3.8,1.6l-0.9,0.9c-0.8-0.8-1.7-1.2-2.8-1.2c-2.3,0-4,1.6-4,3.9
		s1.7,3.9,4,3.9c1.1,0,2.1-0.4,2.8-1.2l0.9,0.9c-0.9,1-2.3,1.6-3.9,1.6C69.1,28.4,66.8,26.2,66.8,23.3z"/>
	<path class="st0" d="M76.7,23.3c0-3,2.3-5.2,5.3-5.2c1.6,0,2.9,0.5,3.8,1.6l-0.9,0.9c-0.8-0.8-1.7-1.2-2.8-1.2c-2.3,0-4,1.6-4,3.9
		s1.7,3.9,4,3.9c1.1,0,2.1-0.4,2.8-1.2l0.9,0.9c-0.9,1-2.3,1.6-3.8,1.6C79,28.4,76.7,26.2,76.7,23.3z"/>
	<path class="st0" d="M87.6,18.2H89v10.1h-1.4V18.2z"/>
	<path class="st0" d="M90.8,23.3c0-3,2.3-5.2,5.4-5.2s5.3,2.2,5.3,5.2s-2.3,5.2-5.3,5.2C93.1,28.4,90.8,26.2,90.8,23.3z M100.1,23.3
		c0-2.2-1.7-3.9-3.9-3.9c-2.3,0-3.9,1.6-3.9,3.9s1.7,3.9,3.9,3.9C98.5,27.1,100.1,25.5,100.1,23.3z M97.1,15.5h1.8l-2.4,1.9h-1.3
		L97.1,15.5z"/>
	<path class="st0" d="M112.1,18.2v10.1h-1.2l-6.1-7.5v7.5h-1.4V18.2h1.2l6.1,7.5v-7.5H112.1z"/>
</g>
</svg>
