<?xml version="1.0" encoding="utf-8"?>
<!-- Generator: Adobe Illustrator 24.0.1, SVG Export Plug-In . SVG Version: 6.00 Build 0)  -->
<svg version="1.1" id="Layer_1" xmlns="http://www.w3.org/2000/svg" xmlns:xlink="http://www.w3.org/1999/xlink" x="0px" y="0px"
	 viewBox="0 0 369 361.5" style="enable-background:new 0 0 369 361.5;" xml:space="preserve">
<style type="text/css">
	.st0{fill:#939598;}
	.st1{fill:#58595B;}
	.st2{fill:#808285;}
	.st3{fill:#1761A0;}
	.st4{fill:#5F9EC4;}
	.st5{fill:#0476AF;}
	.st6{fill:#2A83B6;}
	.st7{fill:#22557C;}
	.st8{fill:#DC2427;}
	.st9{fill:#B62326;}
	.st10{opacity:0.32;fill:#1761A0;enable-background:new    ;}
	.st11{opacity:0.32;fill:#AE1F27;enable-background:new    ;}
</style>
<g>
	<g>
		<polygon class="st0" points="361.2,74.5 288.2,81.5 288.2,55 361.2,74.5 		"/>
	</g>
	<g>
		<polygon class="st1" points="167.2,64.9 288.2,55 288.2,81.5 246.3,85.6 		"/>
	</g>
	<g>
		<polygon class="st0" points="246.3,274.8 246.3,85.6 167.2,64.9 167.2,241.4 		"/>
	</g>
	<g>
		<polyline class="st2" points="246.3,85.6 361.2,74.5 361.2,264.6 246.3,274.8 246.3,85.6 		"/>
	</g>
</g>
<title>campana</title>
<g>
	<path class="st3" d="M104.8,106.9l-3.2,0.4v22.4h27.1v-22.4l-3.2-0.4C118.6,106.1,111.7,106.1,104.8,106.9z"/>
	<path class="st4" d="M101.6,107.3l3.2,0.4c6.9,0.8,13.9,0.8,20.8,0l3.2-0.4l-3.2-0.4c-6.9-0.8-13.9-0.8-20.8,0L101.6,107.3z"/>
	<polygon class="st5" points="239.1,267 240.1,249.1 60.5,273 60.5,291 	"/>
	<polygon class="st4" points="150.8,132.5 240.1,249.6 60.5,273 97.4,135.2 	"/>
	<polygon class="st5" points="97.4,130.5 150.8,127.9 150.8,132.5 97.4,135.4 	"/>
	<polygon class="st6" points="97.4,135.2 81.2,130.5 8.5,237.7 60.5,273 	"/>
	<polygon class="st3" points="60.5,273 60.5,291 8.5,253.6 8.5,237.7 	"/>
	<polygon class="st7" points="81.2,130.5 81.2,126.5 97.4,130.5 97.4,135.2 	"/>
	<polygon class="st3" points="150.8,127.9 132.6,124.9 81.2,126.5 97.4,130.5 	"/>
</g>
<g>
	<g id="Layer_1_1_">
		<path class="st8" d="M253.5,144.5v148.8c-0.6,1-5,7.3-31,7.3s-31-6.4-31.7-7.6V144.5"/>
		<path class="st9" d="M246.4,140.9c-6.5-2.3-15.1-3.5-24.2-3.5s-17.7,1.3-24.3,3.5c-2.5,0.8-4.9,2-7.1,3.5c2.2,1.5,4.6,2.7,7.1,3.5
			c6.6,2.2,15.2,3.5,24.3,3.5s17.7-1.3,24.2-3.5c2.5-0.8,4.9-2,7.1-3.5C251.3,142.9,248.9,141.7,246.4,140.9z"/>
		<path class="st6" d="M214.7,306.3c-0.6,1-4.9,7.3-31,7.3s-31-6.4-31.7-7.6V231c2.2,1.5,4.6,2.7,7.1,3.5c6.6,2.3,15.2,3.5,24.3,3.5
			s17.7-1.3,24.2-3.5c2.5-0.8,4.9-2,7.1-3.5L214.7,306.3z"/>
		<path class="st3" d="M207.6,227.4c-6.5-2.2-15.1-3.5-24.2-3.5s-17.7,1.3-24.3,3.5c-2.5,0.8-4.9,2-7.1,3.5c2.2,1.5,4.6,2.7,7.1,3.5
			c6.6,2.3,15.2,3.5,24.3,3.5s17.7-1.3,24.2-3.5c2.5-0.8,4.9-2,7.1-3.5C212.5,229.5,210.1,228.3,207.6,227.4z"/>
		<path class="st10" d="M167.2,236.6v75.8c0,0-11.5-1.5-15.2-6.5V231c4-2.5,8.5-4.3,13.1-5.2v10.4"/>
		<path class="st11" d="M205.9,150.1v75.8c0,0-11.5-1.5-15.2-6.5v-74.9c4-2.5,8.5-4.3,13.1-5.2v10.4"/>
	</g>
</g>
</svg>
