<?xml version="1.0" encoding="utf-8"?>
<!-- Generator: Adobe Illustrator 24.0.1, SVG Export Plug-In . SVG Version: 6.00 Build 0)  -->
<svg version="1.1" id="Layer_1" xmlns="http://www.w3.org/2000/svg" xmlns:xlink="http://www.w3.org/1999/xlink" x="0px" y="0px"
	 viewBox="0 0 150 186.6" style="enable-background:new 0 0 150 186.6;" xml:space="preserve">
<style type="text/css">
	.st0{fill:#939598;}
	.st1{fill:#58595B;}
	.st2{fill:#808285;}
	.st3{fill:#414042;}
	.st4{fill:none;stroke:#414042;stroke-width:1.5;stroke-linecap:round;stroke-miterlimit:10;}
	.st5{enable-background:new    ;}
</style>
<g>
	<g>
		<polygon class="st0" points="140,54.3 96.8,58.1 96.8,43.6 140,54.3 		"/>
	</g>
	<g>
		<polygon class="st1" points="25.1,49 96.8,43.6 96.8,58.1 71.9,60.3 		"/>
	</g>
	<g>
		<polygon class="st0" points="71.9,163.6 71.9,60.3 25.1,49 25.1,145.4 		"/>
	</g>
	<g>
		<polyline class="st2" points="71.9,60.3 140,54.3 140,158 71.9,163.6 71.9,60.3 		"/>
	</g>
</g>
<g>
	<path class="st3" d="M13.4,105.6h9.2v1.3h-8.1v2.1h-1.1V105.6z"/>
	<path class="st3" d="M18,95.7c-3,0-4.7-1.6-4.7-3.8c0-2.1,1.7-3.8,4.7-3.8s4.7,1.6,4.7,3.8C22.7,94.1,21,95.7,18,95.7z M18,89.5
		c-2.4,0-3.5,1-3.5,2.4c0,1.4,1.2,2.4,3.5,2.4s3.5-1,3.5-2.4C21.5,90.5,20.3,89.5,18,89.5z"/>
	<path class="st3" d="M18,104.3c-3,0-4.7-1.6-4.7-3.8c0-2.1,1.7-3.8,4.7-3.8s4.7,1.6,4.7,3.8C22.7,102.7,21,104.3,18,104.3z
		 M18,98.1c-2.4,0-3.5,1-3.5,2.4c0,1.4,1.2,2.4,3.5,2.4s3.5-1,3.5-2.4C21.5,99.1,20.3,98.1,18,98.1z"/>
</g>
<line class="st4" x1="117.6" y1="167.8" x2="140" y2="165.9"/>
<polyline class="st4" points="56.7,165.9 71.6,171.5 97.3,169.1 "/>
<line class="st4" x1="17.9" y1="145.1" x2="17.9" y2="110.3"/>
<line class="st4" x1="18" y1="85.4" x2="18" y2="50.9"/>
<g class="st5">
	<path class="st3" d="M45.5,165.5l-1.6-0.7l-0.9,2.1l-1.2-0.5l0.9-2.1l-4.7-2l0.4-0.9l6.7-3.8l1.3,0.5l-6.4,3.7l3.3,1.4l0.8-1.8
		l1.1,0.5l-0.8,1.8l1.6,0.7L45.5,165.5z"/>
	<path class="st3" d="M46.9,163.5c1.1-2.8,3.3-3.7,5.3-2.9c2,0.8,2.8,3,1.7,5.8s-3.3,3.7-5.3,2.9C46.5,168.4,45.7,166.2,46.9,163.5z
		 M52.6,165.8c0.9-2.2,0.4-3.7-0.9-4.2c-1.3-0.6-2.7,0.2-3.6,2.3c-0.9,2.2-0.4,3.7,0.9,4.2C50.3,168.7,51.7,168,52.6,165.8z"/>
</g>
<g class="st5">
	<path class="st3" d="M107.2,170.2l-1.7,0.2l0.2,2.3l-1.3,0.1l-0.2-2.3l-5.1,0.5L99,170l4.1-6.5l1.4-0.1l-3.9,6.2l3.5-0.3l-0.2-2
		l1.2-0.1l0.2,2l1.7-0.2L107.2,170.2z"/>
	<path class="st3" d="M107.5,167.8c-0.3-3,1.2-4.8,3.3-5c2.1-0.2,3.9,1.3,4.2,4.3c0.3,3-1.2,4.8-3.3,5
		C109.5,172.3,107.7,170.8,107.5,167.8z M113.6,167.2c-0.2-2.3-1.3-3.4-2.8-3.3c-1.4,0.1-2.3,1.4-2.1,3.8c0.2,2.3,1.3,3.4,2.8,3.3
		C113,170.8,113.9,169.5,113.6,167.2z"/>
</g>
<g>
	<path class="st1" d="M59.3,22.1c0,2.2-1.5,3.5-4,3.5h-2.4v3h-1.4v-10h3.8C57.8,18.6,59.3,19.9,59.3,22.1z M57.9,22.1
		c0-1.4-0.9-2.2-2.7-2.2h-2.4v4.5h2.4C57,24.3,57.9,23.5,57.9,22.1z"/>
	<path class="st1" d="M61,24.3v-5.7h1.4v5.6c0,2.2,1,3.2,2.7,3.2s2.7-1,2.7-3.2v-5.6h1.3v5.7c0,2.9-1.5,4.4-4.1,4.4
		C62.5,28.7,61,27.2,61,24.3z"/>
	<path class="st1" d="M71.7,18.6h1.4v8.8h5.3v1.2h-6.6V18.6z"/>
	<path class="st1" d="M88.6,28.6l0-7.3L85,27.4h-0.6l-3.5-6v7.2h-1.3v-10h1.1l4,7l4-7h1.1l0,10H88.6z"/>
	<path class="st1" d="M91.7,23.6c0-2.9,2.2-5.1,5.2-5.1c3,0,5.1,2.2,5.1,5.1c0,2.9-2.2,5.1-5.1,5.1C93.9,28.7,91.7,26.5,91.7,23.6z
		 M100.6,23.6c0-2.2-1.6-3.8-3.8-3.8c-2.2,0-3.8,1.6-3.8,3.8c0,2.2,1.6,3.8,3.8,3.8C99,27.5,100.6,25.8,100.6,23.6z M97.7,15.9h1.7
		L97,17.8h-1.2L97.7,15.9z"/>
	<path class="st1" d="M112.1,18.6v10H111l-5.8-7.5v7.5h-1.4v-10h1.1l5.8,7.5v-7.5H112.1z"/>
</g>
<line class="st4" x1="24.2" y1="153.3" x2="37.5" y2="158.7"/>
</svg>
